<svg width="127" height="58" viewBox="0 0 127 58" fill="none" xmlns="http://www.w3.org/2000/svg">
<path d="M106.26 15.8754C92.2169 15.8754 83.918 28.9337 83.3901 28.9337C82.8622 28.9337 74.614 15.8754 60.4573 15.8754C46.3217 15.8754 42.28 28.9337 41.8492 28.9337C41.4227 28.9337 38.1749 18.2203 25.9483 18.2203C16.0487 18.2203 14.6635 22.6904 13.8188 22.6904C13.8188 22.6904 14.5621 17.8971 16.0487 9.37114H40.464V0H7.43733L1.8625 31.378H12.5476C12.5476 31.378 14.9929 26.9617 21.4758 26.9617C27.9586 26.9617 31.9032 31.8503 31.9032 37.3686C31.9032 42.8703 27.5489 48.9064 21.4758 48.9064C15.4195 48.9064 11.9056 43.8107 11.9056 40.281H0C0 43.4047 2.55935 58 21.48 58C36.9037 58 41.8534 46.719 41.8534 45.3767C41.8534 46.5119 47.8084 58 60.4784 58C75.163 58 82.5539 45.3767 83.3943 45.3767C84.2517 45.3767 92.9814 58 106.276 58C119.576 58 126.388 46.5119 126.388 36.83C126.371 27.1564 120.315 15.8754 106.26 15.8754ZM76.2949 37.0247H76.2822C76.1977 37.1407 68.0636 46.8184 60.5291 46.8184C52.9524 46.8184 51.5503 39.4234 51.5503 37.0289C51.5503 34.6301 52.9524 27.2351 60.5249 27.2351C68.0636 27.2351 76.1977 36.9129 76.278 37.0289L76.2949 37.0247ZM115.331 37.0247C115.331 39.4234 113.929 46.835 106.357 46.835C98.8307 46.835 90.7007 37.1573 90.6036 37.0413V37.0289C90.7007 36.9129 98.8307 27.2351 106.357 27.2351C113.929 27.2351 115.331 34.6467 115.331 37.0247Z" fill="#242424"/>
</svg>
