<svg width="48" height="48" viewBox="0 0 48 48" fill="none" xmlns="http://www.w3.org/2000/svg">
<rect x="-1.5" y="1.5" width="45" height="45" transform="matrix(-1 0 0 1 45 0)" stroke="#242424" stroke-width="3"/>
<path d="M11.1117 24.7024C10.5259 24.1167 10.5259 23.1669 11.1117 22.5811L20.6577 13.0352C21.2434 12.4494 22.1932 12.4494 22.779 13.0352C23.3648 13.621 23.3648 14.5707 22.779 15.1565L14.2937 23.6418L22.779 32.1271C23.3648 32.7129 23.3648 33.6626 22.779 34.2484C22.1932 34.8342 21.2434 34.8342 20.6577 34.2484L11.1117 24.7024ZM36.5374 25.1418L12.1724 25.1418V22.1418L36.5374 22.1418V25.1418Z" fill="#242424"/>
</svg>
